<?xml version="1.0" encoding="utf-8"?>
<!-- Generator: Adobe Illustrator 26.0.2, SVG Export Plug-In . SVG Version: 6.00 Build 0)  -->
<svg version="1.1" id="Capa_1" xmlns="http://www.w3.org/2000/svg" xmlns:xlink="http://www.w3.org/1999/xlink" x="0px" y="0px"
	 viewBox="0 0 1005 1005" style="enable-background:new 0 0 1005 1005;" xml:space="preserve">
<style type="text/css">
	.st0{fill:#030507;stroke:#030507;stroke-miterlimit:10;}
	.st1{fill:#FCFAF8;stroke:#FCFAF8;stroke-miterlimit:10;}
	.st2{fill:#FFFAF8;stroke:#FCFAF8;stroke-miterlimit:10;}
	.st3{fill:#030507;stroke:#FCFAF8;stroke-miterlimit:10;}
</style>
<g id="Capa_1_00000170275676888660477770000001869583380305838512_">
	<path class="st0" d="M903.3,1002.5H101.7c-54.8,0-99.2-44.4-99.2-99.2V101.7c0-54.8,44.4-99.2,99.2-99.2h801.6
		c54.8,0,99.2,44.4,99.2,99.2v801.6C1002.5,958.1,958.1,1002.5,903.3,1002.5z"/>
</g>
<g id="Capa_2_00000110461281277346712780000000709593624625594501_">
	<ellipse class="st1" cx="506" cy="244.3" rx="130.6" ry="131.1"/>
	<path class="st1" d="M531.6,585.5l98.5-300.4c5.7-17.4-7.3-35.3-25.6-35.3h-197c-18.3,0-31.3,17.9-25.6,35.3l98.5,300.4
		C488.5,610.2,523.5,610.2,531.6,585.5z"/>
	<circle class="st2" cx="507" cy="728.3" r="50.8"/>
	<ellipse class="st3" cx="506.5" cy="728" rx="31.4" ry="31.5"/>
	<path class="st1" d="M543.7,844h-72.4c-18.3,0-33.1-14.8-33.1-33.1v-49.5c0-18.3,14.8-33.1,33.1-33.1h72.4
		c18.3,0,33.1,14.8,33.1,33.1v49.5C576.8,829.2,562,844,543.7,844z"/>
	<g id="Capa_3">
	</g>
</g>
</svg>
